<?xml version="1.0" standalone="no"?>
<!DOCTYPE svg PUBLIC "-//W3C//DTD SVG 20010904//EN"
 "⁦http://www.w3.org/TR/2001/REC-SVG-20010904/DTD/svg10.dtd⁩">
<svg version="1.0" xmlns="⁦http://www.w3.org/2000/svg⁩"
 width="300.000000pt" height="300.000000pt" viewBox="0 0 300.000000 300.000000"
 preserveAspectRatio="xMidYMid meet">
<metadata>
Created by potrace 1.10, written by Peter Selinger 2001-2011
</metadata>
<g transform="translate(0.000000,300.000000) scale(0.100000,-0.100000)"
fill="#000000" stroke="none">
<path d="M408 2726 c-26 -7 -55 -19 -65 -26 -52 -39 -78 -70 -99 -115 l-24
-50 0 -1029 c0 -785 3 -1038 12 -1070 8 -25 32 -61 63 -93 87 -89 7 -84 1226
-81 1000 3 1066 4 1104 21 55 25 103 73 131 132 l24 50 0 1035 0 1035 -24 50
c-12 28 -40 65 -61 84 -81 71 5 66 -1175 68 -837 1 -1075 -1 -1112 -11z m2233
-81 c23 -16 52 -48 63 -70 21 -40 21 -45 21 -1075 0 -1030 0 -1035 -21 -1075
-11 -22 -40 -53 -63 -70 l-43 -30 -1087 -3 -1087 -2 -45 23 c-24 13 -57 43
-74 66 l-30 43 0 1048 0 1048 30 43 c17 23 50 53 74 66 l45 23 1087 -2 1087
-3 43 -30z"/>
<path d="M1023 2060 c-389 -102 -556 -557 -327 -892 201 -295 628 -333 884
-78 173 171 217 418 119 655 l-23 55 -22 -21 -23 -22 20 -38 c54 -107 62 -277
18 -394 -101 -272 -397 -417 -665 -325 -330 114 -463 503 -269 794 77 117 197
194 344 223 71 14 96 15 165 5 76 -11 185 -55 241 -96 18 -13 23 -13 44 3 l23
18 -49 31 c-150 96 -316 125 -480 82z"/>
<path d="M1665 1952 c-151 -98 -343 -270 -487 -439 l-71 -82 -86 79 c-49 45
-95 80 -106 80 -21 0 -95 -67 -95 -86 0 -5 21 -30 46 -54 25 -25 86 -93 136
-152 51 -60 99 -108 107 -108 25 0 34 10 91 95 171 255 469 625 549 682 20 14
29 43 13 43 -4 0 -48 -26 -97 -58z m-95 -120 c0 -5 -39 -57 -87 -115 -107
-129 -163 -205 -270 -361 -48 -71 -89 -120 -100 -122 -11 -2 -34 17 -63 52
-47 57 -74 88 -147 166 -36 40 -42 51 -33 67 26 50 65 36 162 -57 45 -43 62
-53 80 -49 13 4 59 47 103 98 89 102 247 256 308 300 44 32 47 33 47 21z"/>
<path d="M1867 1878 c-2 -7 0 -21 5 -30 8 -16 31 -18 262 -18 212 0 256 2 266
15 7 8 10 22 6 30 -5 13 -43 15 -270 15 -202 0 -265 -3 -269 -12z"/>
<path d="M1872 1637 c-9 -10 -8 -18 1 -30 11 -16 38 -17 272 -15 l260 3 0 25
0 25 -261 3 c-210 2 -263 0 -272 -11z"/>
<path d="M1872 1393 c-21 -42 -12 -43 264 -43 227 0 265 2 270 15 4 8 1 22 -6
30 -10 13 -54 15 -266 15 -231 0 -254 -2 -262 -17z"/>
<path d="M1871 1152 c-22 -41 -7 -43 264 -43 266 1 291 4 269 39 -10 15 -38
17 -267 20 -239 2 -257 1 -266 -16z"/>
</g>
</svg>